<svg xmlns="http://www.w3.org/2000/svg" xmlns:xlink="http://www.w3.org/1999/xlink" version="1.1" x="0px" y="0px" viewBox="10 10 80 80" enable-background="new 0 0 100 100" xml:space="preserve">
    <g>
        <path d="M82.892,12.891c2.694,0,4.885,2.191,4.885,4.886V83.12c0,2.693-2.191,4.885-4.885,4.885H17.548   c-2.694,0-4.885-2.191-4.885-4.885V17.776c0-2.694,2.191-4.886,4.885-4.886H82.892 M82.892,10.448H17.548   c-4.047,0-7.328,3.28-7.328,7.328V83.12c0,4.047,3.281,7.328,7.328,7.328h65.344c4.048,0,7.328-3.281,7.328-7.328V17.776   C90.22,13.729,86.939,10.448,82.892,10.448L82.892,10.448z" fill="#1da1f2"/>
        <path d="M65.925,30.995c0,0.004,0,0.009,0,0.013c-0.568,2.217-7.735,11.585-10.104,14.682c-3.033,3.965-3.033,3.965-3.033,4.922   v7.534v0.617v4.789v2.745v2.833l-5.094-1.854v-4.61V59.92v-1.157v-4.249v-3.902c0-0.955,0-0.955-2.999-4.861   c-2.387-3.109-9.607-12.514-10.18-14.742c0-0.005,0-0.009,0-0.013h14.818h1.774H65.925" />
        <path d="M66.245,28.552H51.107h-1.774H34.194   c-1.17,0-2.186,0.062-2.12,2.66c0.235,3.242,13.176,18.952,13.176,19.399v3.902v4.249v1.157v2.745v5.406   c0,0.505,0.409,1.063,0.915,1.247l8.151,2.967c0.11,0.04,0.215,0.059,0.312,0.059c0.352,0,0.602-0.245,0.602-0.641v-5.406v-2.745   v-4.789v-0.617v-7.534c0-0.46,12.899-16.158,13.134-19.399C68.431,28.614,67.416,28.552,66.245,28.552L66.245,28.552z" fill="#1da1f2"/>
    </g>
</svg>
